<?xml version="1.0" encoding="utf-8"?>
<!-- Generator: Adobe Illustrator 23.0.1, SVG Export Plug-In . SVG Version: 6.00 Build 0)  -->
<svg version="1.1" id="Layer_1" xmlns="http://www.w3.org/2000/svg" xmlns:xlink="http://www.w3.org/1999/xlink" x="0px" y="0px"
	 viewBox="0 0 1300 850" style="enable-background:new 0 0 1300 850;" xml:space="preserve">
<style type="text/css">
	.st0{fill:none;stroke:#000000;stroke-width:2;stroke-miterlimit:10;}
	.st1{fill:#FFFFFF;}
</style>
<line class="st0" x1="69" y1="68" x2="69" y2="734"/>
<line class="st0" x1="170" y1="68" x2="170" y2="734"/>
<line class="st0" x1="300" y1="68" x2="300" y2="734"/>
<line class="st0" x1="509" y1="67" x2="509" y2="734"/>
<line class="st0" x1="734" y1="68" x2="734" y2="734"/>
<line class="st0" x1="959" y1="67" x2="959" y2="734"/>
<line class="st0" x1="1232" y1="68" x2="1232" y2="734"/>
<line class="st0" x1="45" y1="132" x2="1255" y2="132"/>
<line class="st0" x1="45" y1="208" x2="1255" y2="208"/>
<line class="st0" x1="45" y1="311" x2="1255" y2="311"/>
<line class="st0" x1="45" y1="465" x2="1255" y2="465"/>
<line class="st0" x1="45" y1="680" x2="1255" y2="680"/>
<g>
	<g>
		<path class="st1" d="M1091.4,260.8c7.7,0,7.7-12,0-12C1083.6,248.8,1083.6,260.8,1091.4,260.8L1091.4,260.8z"/>
	</g>
</g>
<g>
	<g>
		<path class="st1" d="M1033,376.6c6.4,0,6.4-10,0-10S1026.6,376.6,1033,376.6L1033,376.6z"/>
	</g>
</g>
<circle cx="1014.2" cy="285.2" r="3.8"/>
<circle cx="790.2" cy="636.2" r="3.8"/>
<circle cx="817.2" cy="170.2" r="3.8"/>
<circle cx="243.2" cy="638.2" r="3.8"/>
<circle cx="1114.2" cy="572.2" r="3.8"/>
<circle cx="123.2" cy="183.2" r="3.8"/>
<circle cx="646.2" cy="558.2" r="3.8"/>
<circle cx="542.2" cy="510.2" r="3.8"/>
<circle cx="123.2" cy="401.2" r="3.8"/>
<circle cx="107.2" cy="615.2" r="3.8"/>
<circle cx="613.2" cy="422.2" r="3.8"/>
<circle cx="1127.2" cy="183" r="3.8"/>
<circle cx="473.8" cy="179.2" r="3.8"/>
<circle cx="212.4" cy="236.8" r="3.8"/>
<circle cx="782.6" cy="285.2" r="3.8"/>
<circle cx="686.9" cy="93.3" r="3.8"/>
<circle cx="1184.8" cy="704.2" r="3.8"/>
<circle cx="354.5" cy="541.8" r="3.8"/>
<circle cx="404.5" cy="704.2" r="3.8"/>
<circle cx="1177.1" cy="418.4" r="3.8"/>
<circle cx="103.4" cy="89.5" r="3.8"/>
<circle cx="1052.9" cy="84.8" r="3.8"/>
</svg>
