<?xml version="1.0" encoding="utf-8"?>
<!-- Generator: Adobe Illustrator 23.0.1, SVG Export Plug-In . SVG Version: 6.00 Build 0)  -->
<svg version="1.1" id="Layer_1" xmlns="http://www.w3.org/2000/svg" xmlns:xlink="http://www.w3.org/1999/xlink" x="0px" y="0px"
	 viewBox="0 0 82.7 82.7" style="enable-background:new 0 0 82.7 82.7;" xml:space="preserve">
<style type="text/css">
	.st0{fill:#F1F2F2;}
</style>
<g>
	<circle cx="41.5" cy="42.2" r="26"/>
	<g>
		<path class="st0" d="M41.5,25.7c-9.1,0-16.5,7.4-16.5,16.5s7.4,16.5,16.5,16.5c9.1,0,16.5-7.4,16.5-16.5
			C58,33.1,50.6,25.7,41.5,25.7L41.5,25.7z M52.4,33.5c1.9,2.3,3,5.3,3.1,8.5c-0.6-0.1-3.3-0.6-6.5-0.6c-1,0-2.1,0.1-3.2,0.2
			c-0.1-0.2-0.2-0.4-0.3-0.7c-0.3-0.7-0.6-1.3-0.9-2C49.5,37,51.9,34.2,52.4,33.5L52.4,33.5z M41.5,28.3c3.5,0,6.7,1.3,9.2,3.5
			c-0.4,0.5-2.5,3.2-7.2,4.9c-2.2-4-4.6-7.3-5.1-8.1C39.4,28.4,40.4,28.3,41.5,28.3L41.5,28.3z M35.5,29.7c0.5,0.7,2.9,4,5.1,8
			c-6,1.6-11.3,1.7-12.6,1.7h-0.1C28.8,35.1,31.7,31.5,35.5,29.7L35.5,29.7z M27.5,42.3c0-0.1,0-0.2,0-0.3c0.1,0,0.2,0,0.4,0
			c1.7,0,7.7-0.1,13.9-2c0.4,0.7,0.7,1.5,1.1,2.2c-0.2,0-0.3,0.1-0.5,0.1c-7,2.3-10.8,8.2-11.4,9.2C28.9,49,27.5,45.8,27.5,42.3
			L27.5,42.3z M41.5,56.2c-3.2,0-6.2-1.1-8.5-2.9c0.4-0.8,3.3-6,10.9-8.7c0,0,0,0,0,0c1.9,5,2.7,9.2,3,10.5
			C45.2,55.8,43.4,56.2,41.5,56.2L41.5,56.2z M49.4,53.8c-0.2-1.1-0.9-5-2.7-9.8c1-0.2,1.9-0.2,2.8-0.2c2.9,0,5.2,0.6,5.7,0.8
			C54.6,48.4,52.5,51.6,49.4,53.8L49.4,53.8z"/>
	</g>
</g>
</svg>
