<?xml version="1.0" encoding="utf-8"?>
<!-- Generator: Adobe Illustrator 23.0.3, SVG Export Plug-In . SVG Version: 6.00 Build 0)  -->
<svg version="1.1" id="Layer_1" xmlns="http://www.w3.org/2000/svg" xmlns:xlink="http://www.w3.org/1999/xlink" x="0px" y="0px"
	 viewBox="0 0 82.7 82.7" style="enable-background:new 0 0 82.7 82.7;" xml:space="preserve">
<path d="M41.5,16.6C27,16.6,15.3,28,15.3,42c0,11.2,7.5,20.7,17.9,24.1c1.3,0.2,1.8-0.5,1.8-1.2c0-0.6,0-2.2,0-4.3
	c-7.3,1.5-8.8-3.4-8.8-3.4c-1.2-2.9-2.9-3.7-2.9-3.7c-2.4-1.6,0.2-1.5,0.2-1.5c2.6,0.2,4,2.6,4,2.6c2.3,3.9,6.1,2.8,7.6,2.1
	c0.2-1.6,0.9-2.8,1.7-3.4c-5.8-0.6-11.9-2.8-11.9-12.5c0-2.8,1-5,2.7-6.8c-0.3-0.6-1.2-3.2,0.2-6.7c0,0,2.2-0.7,7.2,2.6
	c2.1-0.6,4.3-0.8,6.6-0.9c2.2,0,4.5,0.3,6.5,0.9c5-3.3,7.2-2.6,7.2-2.6c1.4,3.5,0.5,6.1,0.3,6.7c1.7,1.8,2.7,4,2.7,6.8
	c0,9.8-6.1,11.9-12,12.5c0.9,0.8,1.8,2.3,1.8,4.7c0,3.4,0,6.1,0,6.9c0,0.7,0.5,1.5,1.8,1.2c10.5-3.3,18-12.8,18-24
	C67.7,28,56,16.6,41.5,16.6"/>
</svg>
