<?xml version="1.0" encoding="utf-8"?>
<!-- Generator: Adobe Illustrator 23.0.1, SVG Export Plug-In . SVG Version: 6.00 Build 0)  -->
<svg version="1.1" id="Layer_1" xmlns="http://www.w3.org/2000/svg" xmlns:xlink="http://www.w3.org/1999/xlink" x="0px" y="0px"
	 viewBox="0 0 82.7 82.7" style="enable-background:new 0 0 82.7 82.7;" xml:space="preserve">
<g>
	<path d="M49.2,29.8H33.7c-2.5,0-4.5,2-4.5,4.5v15.5c0,2.5,2,4.5,4.5,4.5h15.5c2.5,0,4.5-2,4.5-4.5V34.3
		C53.7,31.9,51.7,29.8,49.2,29.8z M41.5,50.1c-4.4,0-8.1-3.6-8.1-8.1c0-4.4,3.6-8.1,8.1-8.1c4.4,0,8.1,3.6,8.1,8.1
		S45.9,50.1,41.5,50.1z M49.8,35.7c-1.1,0-1.9-0.9-1.9-1.9s0.9-1.9,1.9-1.9c1.1,0,1.9,0.9,1.9,1.9C51.7,34.8,50.9,35.7,49.8,35.7z"
		/>
	<path d="M41.5,37.4c-2.6,0-4.7,2.1-4.7,4.7c0,2.6,2.1,4.7,4.7,4.7c2.6,0,4.7-2.1,4.7-4.7C46.1,39.5,44.1,37.4,41.5,37.4z"/>
	<path d="M41.5,16c-14.4,0-26,11.6-26,26s11.6,26,26,26s26-11.6,26-26S55.9,16,41.5,16z M57.1,49.8c0,4.4-3.5,7.9-7.9,7.9H33.7
		c-4.4,0-7.9-3.5-7.9-7.9V34.3c0-4.4,3.5-7.9,7.9-7.9h15.5c4.4,0,7.9,3.5,7.9,7.9V49.8z"/>
</g>
</svg>
