<?xml version="1.0" encoding="utf-8"?>
<!-- Generator: Adobe Illustrator 23.0.1, SVG Export Plug-In . SVG Version: 6.00 Build 0)  -->
<svg version="1.1" id="Layer_1" xmlns="http://www.w3.org/2000/svg" xmlns:xlink="http://www.w3.org/1999/xlink" x="0px" y="0px"
	 viewBox="0 0 82.7 82.7" style="enable-background:new 0 0 82.7 82.7;" xml:space="preserve">
<style type="text/css">
	.st0{fill:#F1F2F2;}
</style>
<g>
	<circle cx="41.2" cy="42.2" r="26.1"/>
	<g>
		<path class="st0" d="M56.8,44.3V55h-6.2V45c0-2.5-0.9-4.2-3.2-4.2c-1.7,0-2.7,1.2-3.2,2.3C44,43.4,44,44,44,44.5V55h-6.2
			c0,0,0.1-17,0-18.7H44v2.7c0,0,0,0,0,0.1h0v-0.1c0.8-1.3,2.3-3.1,5.6-3.1C53.7,35.8,56.8,38.5,56.8,44.3L56.8,44.3z M31.2,27.2
			c-2.1,0-3.5,1.4-3.5,3.2c0,1.8,1.4,3.2,3.4,3.2h0c2.2,0,3.5-1.4,3.5-3.2C34.6,28.6,33.3,27.2,31.2,27.2L31.2,27.2z M28,55h6.2
			V36.3H28V55z"/>
	</g>
</g>
</svg>
