<?xml version="1.0" encoding="utf-8"?>
<!-- Generator: Adobe Illustrator 23.0.1, SVG Export Plug-In . SVG Version: 6.00 Build 0)  -->
<svg version="1.1" id="Layer_1" xmlns="http://www.w3.org/2000/svg" xmlns:xlink="http://www.w3.org/1999/xlink" x="0px" y="0px"
	 viewBox="0 0 1300 400" style="enable-background:new 0 0 1300 400;" xml:space="preserve">
<path d="M260.6,173.8c-19.4,0-29.1,7.2-37.9,13.4c-7.7,5.5-13.8,9.8-27,9.8c-13.2,0-19.4-4.3-27-9.8c-8.7-6.3-18.7-13.4-37.9-13.4
	s-29.1,7.2-37.9,13.4c-7.7,5.5-13.8,9.8-27,9.8s-19.4-4.3-27-9.8c-8.6-6.2-18.5-13.4-37.7-13.4v19.5c13.2,0,19.4,4.3,27,9.8
	c8.7,6.3,18.7,13.5,37.9,13.5s29.1-7.2,37.9-13.4c7.7-5.5,13.8-9.8,27-9.8c13.2,0,19.4,4.3,27,9.8c8.7,6.3,18.7,13.4,37.9,13.4
	s29.1-7.2,37.9-13.4c7.7-5.5,13.8-9.8,27-9.8c13.2,0,19.4,4.3,27,9.8c8.7,6.3,18.7,13.4,37.9,13.4v-19.5c-13.2,0-19.4-4.3-27-9.8
	C289.8,181,280,173.8,260.6,173.8z"/>
<path d="M260.6,59.3c-19.4,0-29.1,7.2-37.9,13.4c-7.7,5.5-13.8,9.8-27,9.8c-13.2,0-19.4-4.3-27-9.8c-8.7-6.3-18.7-13.4-37.9-13.4
	s-29.1,7.2-37.9,13.4c-7.5,5.5-13.6,9.8-26.8,9.8s-19.3-4.3-26.9-9.8C30.1,66.4,20.4,59.3,1,59.3v19.5c13.2,0,19.4,4.3,27,9.8
	c8.7,6.3,18.7,13.4,37.9,13.4s29.1-7.2,37.9-13.4c7.7-5.5,13.8-9.8,27-9.8c13.1,0,19.4,4.3,27,9.8c8.7,6.3,18.7,13.4,37.9,13.4
	s29.1-7.2,37.9-13.4c7.7-5.5,13.8-9.8,27-9.8c13.2,0,19.4,4.3,27,9.8c8.7,6.3,18.7,13.4,37.9,13.4V82.5c-13.2,0-19.4-4.3-27-9.8
	C289.8,66.4,280,59.3,260.6,59.3z"/>
<path d="M260.6,116.5c-19.4,0-29.1,7.2-37.9,13.4c-7.7,5.5-13.8,9.8-27,9.8c-13.2,0-19.4-4.3-27-9.8c-8.7-6.3-18.7-13.4-37.9-13.4
	s-29.1,7.2-37.9,13.4c-7.5,5.6-13.6,9.9-26.8,9.9s-19.4-4.3-27-9.8c-8.7-6.3-18.6-13.5-37.8-13.5V136c13.2,0,19.4,4.3,27,9.8
	c8.7,6.3,18.7,13.4,37.9,13.4s29.1-7.2,37.9-13.4c7.7-5.5,13.8-9.8,27-9.8s19.4,4.3,27,9.8c8.7,6.3,18.7,13.4,37.9,13.4
	s29.1-7.2,37.9-13.4c7.7-5.5,13.8-9.8,27-9.8c13.2,0,19.4,4.3,27,9.8c8.7,6.3,18.7,13.4,37.9,13.4v-19.3c-13.2,0-19.4-4.3-27-9.8
	C289.8,123.7,280,116.5,260.6,116.5z"/>
<path d="M298.6,15.4C289.9,9.1,280,2,260.6,2c-19.4,0-29.1,7.2-37.9,13.4c-7.7,5.5-13.8,9.8-27,9.8c-13.2,0-19.4-4.3-27-9.8
	C159.9,9.1,150,2,130.6,2s-29.1,7.2-37.9,13.4C85.2,21,79.2,25.3,66,25.3S46.6,21,39,15.5C30.1,9.2,20.4,2,1,2v19.5
	c13.2,0,19.4,4.3,27,9.8c8.7,6.3,18.7,13.5,37.9,13.5s29.1-7.2,37.9-13.4c7.7-5.5,13.8-9.8,27-9.8c13.2,0,19.4,4.3,27,9.8
	c8.7,6.3,18.7,13.4,37.9,13.4s29.1-7.2,37.9-13.4c7.7-5.5,13.8-9.8,27-9.8s19.4,4.3,27,9.8c8.7,6.3,18.7,13.4,37.9,13.4V25.3
	C312.3,25.3,306.2,21,298.6,15.4z"/>
<path d="M520.5,173.8c-19.4,0-29.1,7.2-37.9,13.4c-7.7,5.5-13.8,9.8-27,9.8c-13.1,0-19.4-4.3-27-9.8c-8.7-6.3-18.7-13.4-37.9-13.4
	c-19.4,0-29.1,7.2-37.9,13.4c-7.7,5.5-13.8,9.8-27,9.8c-13.2,0-19.4-4.3-27-9.8c-8.7-6.3-18.7-13.4-37.9-13.4v19.5
	c13.2,0,19.4,4.3,27,9.8c8.7,6.3,18.7,13.4,37.9,13.4c19.4,0,29.1-7.2,37.9-13.4c7.7-5.5,13.8-9.8,27-9.8c13.2,0,19.4,4.3,27,9.8
	c8.7,6.3,18.7,13.4,37.9,13.4c19.4,0,29.1-7.2,37.9-13.4c7.7-5.5,13.8-9.8,27-9.8c13.1,0,19.4,4.3,27,9.8
	c8.7,6.3,18.7,13.4,37.9,13.4V197c-13.2,0-19.4-4.3-27-9.8C549.6,181,539.8,173.8,520.5,173.8z"/>
<path d="M520.5,59.3c-19.4,0-29.1,7.2-37.9,13.4c-7.7,5.5-13.8,9.8-27,9.8c-13.1,0-19.4-4.3-27-9.8c-8.7-6.3-18.7-13.4-37.9-13.4
	c-19.4,0-29.1,7.2-37.9,13.4c-7.7,5.5-13.8,9.8-27,9.8c-13.2,0-19.4-4.3-27-9.8c-8.7-6.3-18.7-13.4-37.9-13.4v19.5
	c13.2,0,19.4,4.3,27,9.8c8.7,6.3,18.7,13.4,37.9,13.4c19.4,0,29.1-7.2,37.9-13.4c7.7-5.5,13.8-9.8,27-9.8c13.2,0,19.4,4.3,27,9.8
	c8.7,6.3,18.7,13.4,37.9,13.4c19.4,0,29.1-7.2,37.9-13.4c7.8-5.5,13.8-9.8,27-9.8c13.1,0,19.4,4.3,27,9.8
	c8.7,6.3,18.7,13.4,37.9,13.4V82.5c-13.2,0-19.4-4.3-27-9.8C549.6,66.4,539.8,59.3,520.5,59.3z"/>
<path d="M520.5,116.5c-19.4,0-29.1,7.2-37.9,13.4c-7.7,5.5-13.8,9.8-27,9.8c-13.1,0-19.4-4.3-27-9.8c-8.7-6.3-18.7-13.4-37.9-13.4
	c-19.4,0-29.1,7.2-37.9,13.4c-7.5,5.6-13.6,9.9-26.8,9.9c-13.1,0-19.4-4.3-27-9.8c-8.7-6.3-18.7-13.4-37.9-13.4v19.5
	c13.2,0,19.4,4.3,27,9.8c8.7,6.3,18.7,13.4,37.9,13.4c19.3,0,29.1-7.2,37.9-13.4c7.7-5.5,13.8-9.8,27-9.8s19.4,4.3,27,9.8
	c8.7,6.3,18.7,13.4,37.9,13.4c19.4,0,29.1-7.2,37.9-13.4c7.7-5.5,13.8-9.8,27-9.8s19.4,4.3,27,9.8c8.7,6.3,18.7,13.4,37.9,13.4
	v-19.5c-13.2,0-19.4-4.3-27-9.8C549.6,123.7,539.8,116.5,520.5,116.5z"/>
<path d="M558.4,15.4C549.7,9.1,539.8,2,520.5,2c-19.4,0-29.1,7.2-37.9,13.4c-7.7,5.5-13.8,9.8-27,9.8c-13.1,0-19.4-4.3-27-9.8
	C419.7,9.1,409.8,2,390.6,2c-19.4,0-29.1,7.2-37.9,13.4c-7.7,5.5-13.8,9.8-27,9.8c-13.1,0-19.4-4.3-27-9.8C290,9.2,280.2,2,260.8,2
	v19.5c13.2,0,19.4,4.3,27,9.8c8.7,6.3,18.7,13.4,37.9,13.4c19.4,0,29.1-7.2,37.9-13.4c7.7-5.5,13.8-9.8,27-9.8
	c13.2,0,19.4,4.3,27,9.8c8.7,6.3,18.7,13.4,37.9,13.4c19.4,0,29.1-7.2,37.9-13.4c7.7-5.5,13.7-9.8,26.9-9.8c13.2,0,19.4,4.3,27,9.8
	c8.7,6.3,18.7,13.4,37.9,13.4V25.3C572.2,25.3,566,21,558.4,15.4z"/>
<path d="M780.3,173.8c-19.4,0-29.1,7.2-37.9,13.4c-7.7,5.5-13.8,9.8-27,9.8c-13.2,0-19.4-4.3-27-9.8c-8.7-6.3-18.7-13.4-37.9-13.4
	c-19.4,0-29.1,7.2-37.9,13.4c-7.7,5.5-13.8,9.8-27,9.8s-19.4-4.3-27-9.8c-8.7-6.3-18.7-13.4-37.9-13.4v19.5c13.2,0,19.4,4.3,27,9.8
	c8.7,6.3,18.7,13.4,37.9,13.4c19.4,0,29.1-7.2,37.9-13.4c7.7-5.5,13.8-9.8,27-9.8s19.4,4.3,27,9.8c8.7,6.3,18.7,13.4,37.9,13.4
	c19.4,0,29.1-7.2,37.9-13.4c7.7-5.5,13.8-9.8,27-9.8s19.4,4.3,27,9.8c8.7,6.3,18.7,13.4,37.9,13.4V197c-13.2,0-19.4-4.3-27-9.8
	C809.5,181,799.6,173.8,780.3,173.8z"/>
<path d="M780.3,59.3c-19.4,0-29.1,7.2-37.9,13.4c-7.7,5.5-13.8,9.8-27,9.8c-13.2,0-19.4-4.3-27-9.8c-8.7-6.3-18.7-13.4-37.9-13.4
	c-19.4,0-29.1,7.2-37.9,13.4c-7.7,5.5-13.8,9.8-27,9.8s-19.4-4.3-27-9.8c-8.7-6.3-18.7-13.4-37.9-13.4v19.5c13.2,0,19.4,4.3,27,9.8
	c8.7,6.3,18.7,13.4,37.9,13.4c19.4,0,29.1-7.2,37.9-13.4c7.8-5.5,13.9-9.8,27.1-9.8c13.2,0,19.4,4.3,27,9.8
	c8.7,6.3,18.7,13.4,37.9,13.4s29.1-7.2,37.9-13.4c7.7-5.5,13.8-9.8,27-9.8s19.4,4.3,27,9.8c8.7,6.3,18.7,13.4,37.9,13.4V82.5
	c-13.2,0-19.4-4.3-27-9.8C809.5,66.4,799.6,59.3,780.3,59.3z"/>
<path d="M780.3,116.5c-19.4,0-29.1,7.2-37.9,13.4c-7.7,5.5-13.8,9.8-27,9.8c-13.2,0-19.4-4.3-27-9.8c-8.7-6.3-18.7-13.4-37.9-13.4
	c-19.4,0-29.1,7.2-37.9,13.4c-7.5,5.6-13.6,9.9-26.8,9.9c-13.2,0-19.4-4.3-27-9.8c-8.7-6.3-18.7-13.4-37.9-13.4v19.5
	c13.2,0,19.4,4.3,27,9.8c8.7,6.3,18.7,13.4,37.9,13.4c19.4,0,29.1-7.2,37.9-13.4c7.7-5.5,13.8-9.8,27-9.8s19.4,4.3,27,9.8
	c8.7,6.3,18.7,13.4,37.9,13.4c19.4,0,29.1-7.2,37.9-13.4c7.7-5.5,13.8-9.8,27-9.8s19.4,4.3,27,9.8c8.7,6.3,18.7,13.4,37.9,13.4
	v-19.5c-13.2,0-19.4-4.3-27-9.8C809.5,123.7,799.6,116.5,780.3,116.5z"/>
<path d="M818.3,15.4C809.6,9.1,799.6,2,780.3,2s-29.1,7.2-37.9,13.4c-7.7,5.5-13.8,9.8-27,9.8c-13.2,0-19.4-4.3-27-9.8
	C679.7,9.1,669.7,2,650.4,2c-19.4,0-29.1,7.2-37.9,13.4c-7.7,5.5-13.8,9.8-27,9.8s-19.4-4.3-27-9.8C549.8,9.2,539.9,2,520.7,2v19.5
	c13.2,0,19.4,4.3,27,9.8c8.7,6.3,18.7,13.4,37.9,13.4s29.1-7.2,37.9-13.4c7.7-5.5,13.8-9.8,27-9.8c13.2,0,19.4,4.3,27,9.8
	c8.7,6.3,18.7,13.4,37.9,13.4s29.1-7.2,37.9-13.4c7.7-5.5,13.8-9.8,27-9.8s19.4,4.3,27,9.8c8.7,6.3,18.7,13.4,37.9,13.4V25.3
	C832,25.3,825.9,21,818.3,15.4z"/>
<path d="M1040.2,173.8c-19.4,0-29.1,7.2-37.9,13.4c-7.7,5.5-13.8,9.8-27,9.8s-19.4-4.3-27-9.8c-8.7-6.3-18.7-13.4-37.9-13.4
	s-29.1,7.2-37.9,13.4c-7.7,5.5-13.8,9.8-27,9.8s-19.4-4.3-27-9.8c-8.7-6.3-18.7-13.4-37.9-13.4v19.5c13.2,0,19.4,4.3,27,9.8
	c8.7,6.3,18.7,13.4,37.9,13.4c19.4,0,29.1-7.2,37.9-13.4c7.7-5.5,13.8-9.8,27-9.8s19.4,4.3,27,9.8c8.7,6.3,18.7,13.4,37.9,13.4
	c19.4,0,29.1-7.2,37.9-13.4c7.7-5.5,13.8-9.8,27-9.8c13.2,0,19.4,4.3,27,9.8c8.7,6.3,18.7,13.4,37.9,13.4V197
	c-13.2,0-19.4-4.3-27-9.8C1069.3,181,1059.4,173.8,1040.2,173.8z"/>
<path d="M1040.2,59.3c-19.4,0-29.1,7.2-37.9,13.4c-7.7,5.5-13.8,9.8-27,9.8s-19.4-4.3-27-9.8c-8.7-6.3-18.7-13.4-37.9-13.4
	s-29.1,7.2-37.9,13.4c-7.7,5.5-13.8,9.8-27,9.8s-19.4-4.3-27-9.8c-8.7-6.3-18.7-13.4-37.9-13.4v19.5c13.2,0,19.4,4.3,27,9.8
	c8.7,6.3,18.7,13.4,37.9,13.4c19.4,0,29.1-7.2,37.9-13.4c7.7-5.5,13.8-9.8,27-9.8s19.4,4.3,27,9.8C946,94.9,956,102,975.3,102
	c19.4,0,29.1-7.2,37.9-13.4c7.7-5.5,13.8-9.8,27-9.8c13.2,0,19.4,4.3,27,9.8c8.7,6.3,18.7,13.4,37.9,13.4V82.5
	c-13.2,0-19.4-4.3-27-9.8C1069.3,66.4,1059.4,59.3,1040.2,59.3z"/>
<path d="M1040.2,116.5c-19.4,0-29.1,7.2-37.9,13.4c-7.7,5.5-13.8,9.8-27,9.8s-19.4-4.3-27-9.8c-8.7-6.3-18.7-13.4-37.9-13.4
	s-29.1,7.2-37.9,13.4c-7.5,5.6-13.6,9.9-26.8,9.9s-19.4-4.3-27-9.8c-8.7-6.3-18.7-13.4-37.9-13.4v19.5c13.2,0,19.4,4.3,27,9.8
	c8.7,6.3,18.7,13.4,37.9,13.4c19.4,0,29.1-7.2,37.9-13.4c7.7-5.5,13.8-9.8,27-9.8s19.4,4.3,27,9.8c8.7,6.3,18.7,13.4,37.9,13.4
	c19.4,0,29.1-7.2,37.9-13.4c7.7-5.5,13.8-9.8,27-9.8s19.4,4.3,27,9.8c8.7,6.3,18.7,13.4,37.9,13.4v-19.5c-13.2,0-19.4-4.3-27-9.8
	C1069.3,123.7,1059.4,116.5,1040.2,116.5z"/>
<path d="M1078.1,15.4c-8.7-6.3-18.7-13.4-37.9-13.4c-19.3,0-29.1,7.2-37.9,13.4c-7.7,5.5-13.8,9.8-27,9.8s-19.4-4.3-27-9.8
	C939.5,9.1,929.5,2,910.2,2c-19.4,0-29.1,7.2-37.9,13.4c-7.7,5.5-13.8,9.8-27,9.8s-19.4-4.3-27-9.8C809.7,9.2,799.8,2,780.5,2v19.5
	c13.2,0,19.4,4.3,27,9.8c8.7,6.3,18.7,13.4,37.9,13.4s29.1-7.2,37.9-13.4c7.7-5.5,13.8-9.8,27-9.8c13.2,0,19.4,4.3,27,9.8
	c8.7,6.3,18.7,13.4,37.9,13.4s29.1-7.2,37.9-13.4c7.7-5.5,13.8-9.8,27-9.8c13.1,0,19.4,4.3,27,9.8c8.7,6.3,18.7,13.4,37.9,13.4V25.3
	C1091.8,25.3,1085.7,21,1078.1,15.4z"/>
<path d="M1299,173.8c-19.4,0-29.1,7.2-37.9,13.4c-7.7,5.5-13.8,9.8-27,9.8c-13.2,0-19.4-4.3-27-9.8c-8.7-6.3-18.7-13.4-37.9-13.4
	c-19.3,0-29.1,7.2-37.9,13.4c-7.7,5.5-13.8,9.8-27,9.8c-13.1,0-19.4-4.3-27-9.8c-8.7-6.3-18.7-13.4-37.9-13.4v19.5
	c13.2,0,19.4,4.3,27,9.8c8.7,6.3,18.7,13.4,37.9,13.4c19.3,0,29.1-7.2,37.9-13.4c7.7-5.5,13.8-9.8,27-9.8c13.1,0,19.4,4.3,27,9.8
	c8.7,6.3,18.7,13.4,37.9,13.4c19.4,0,29.1-7.2,37.9-13.4c7.7-5.5,13.8-9.8,27-9.8c13.1,0,19.4,4.3,27,9.8
	c8.7,6.3,18.7,13.4,37.9,13.4V197c-13.2,0-19.4-4.3-27-9.8C1328.2,181,1318.2,173.8,1299,173.8z"/>
<path d="M1299,59.3c-19.4,0-29.1,7.2-37.9,13.4c-7.7,5.5-13.8,9.8-27,9.8c-13.2,0-19.4-4.3-27-9.8c-8.7-6.3-18.7-13.4-37.9-13.4
	c-19.3,0-29.1,7.2-37.9,13.4c-7.7,5.5-13.8,9.8-27,9.8c-13.1,0-19.4-4.3-27-9.8c-8.7-6.3-18.7-13.4-37.9-13.4v19.5
	c13.2,0,19.4,4.3,27,9.8c8.7,6.3,18.7,13.4,37.9,13.4c19.3,0,29.1-7.2,37.9-13.4c7.7-5.5,13.8-9.8,27-9.8c13.1,0,19.4,4.3,27,9.8
	c8.7,6.3,18.7,13.4,37.9,13.4c19.4,0,29.1-7.2,37.9-13.4c7.7-5.5,13.8-9.8,27-9.8c13.1,0,19.4,4.3,27,9.8
	c8.7,6.3,18.7,13.4,37.9,13.4V82.5c-13.2,0-19.4-4.3-27-9.8C1328.2,66.4,1318.2,59.3,1299,59.3z"/>
<path d="M1299,116.5c-19.4,0-29.1,7.2-37.9,13.4c-7.7,5.5-13.8,9.8-27,9.8c-13.2,0-19.4-4.3-27-9.8c-8.7-6.3-18.7-13.4-37.9-13.4
	c-19.3,0-29.1,7.2-37.9,13.4c-7.7,5.5-13.8,9.8-27,9.8c-13.1,0-19.4-4.3-27-9.8c-8.7-6.3-18.7-13.4-37.9-13.4V136
	c13.2,0,19.4,4.3,27,9.8c8.7,6.3,18.7,13.4,37.9,13.4c19.3,0,29.1-7.2,37.9-13.4c7.7-5.5,13.8-9.8,27-9.8c13.1,0,19.4,4.3,27,9.8
	c8.7,6.3,18.7,13.4,37.9,13.4c19.4,0,29.1-7.2,37.9-13.4c7.7-5.5,13.8-9.8,27-9.8c13.1,0,19.4,4.3,27,9.8
	c8.7,6.3,18.7,13.4,37.9,13.4v-19.3c-13.2,0-19.4-4.3-27-9.8C1328.2,123.7,1318.2,116.5,1299,116.5z"/>
<path d="M1337,15.4C1328.3,9.1,1318.3,2,1299,2c-19.3,0-29.1,7.2-37.9,13.4c-7.7,5.5-13.8,9.8-27,9.8c-13.2,0-19.4-4.3-27-9.8
	c-8.7-6.3-18.7-13.4-37.9-13.4c-19.3,0-29.1,7.2-37.9,13.4c-7.7,5.5-13.8,9.8-27,9.8c-13.1,0-19.4-4.3-27-9.8
	c-8.8-6.2-18.8-13.4-37.9-13.4v19.5c13.2,0,19.4,4.3,27,9.8c8.7,6.3,18.7,13.4,37.9,13.4c19.3,0,29.1-7.2,37.9-13.4
	c7.7-5.5,13.8-9.8,27-9.8c13.2,0,19.4,4.3,27,9.8c8.7,6.3,18.7,13.4,37.9,13.4c19.3,0,29.1-7.2,37.9-13.4c7.7-5.5,13.8-9.8,27-9.8
	c13.2,0,19.4,4.3,27,9.8c8.7,6.3,18.7,13.4,37.9,13.4V25.3C1350.7,25.3,1344.6,21,1337,15.4z"/>
<path d="M260.6,345.8c-19.4,0-29.1,7.2-37.9,13.4c-7.7,5.5-13.8,9.8-27,9.8c-13.2,0-19.4-4.3-27-9.8c-8.7-6.3-18.7-13.4-37.9-13.4
	s-29.1,7.2-37.9,13.4c-7.7,5.5-13.8,9.8-27,9.8s-19.4-4.3-27-9.8C30.1,353,20.4,345.8,1,345.8v19.5c13.2,0,19.4,4.3,27,9.8
	c8.7,6.3,18.7,13.5,37.9,13.5s29.1-7.2,37.9-13.4c7.7-5.5,13.8-9.8,27-9.8c13.1,0,19.4,4.3,27,9.8c8.7,6.3,18.7,13.4,37.9,13.4
	s29.1-7.2,37.9-13.4c7.7-5.5,13.8-9.8,27-9.8c13.2,0,19.4,4.3,27,9.8c8.7,6.3,18.7,13.4,37.9,13.4v-19.5c-13.2,0-19.4-4.3-27-9.8
	C289.8,353,280,345.8,260.6,345.8z"/>
<path d="M260.6,231.3c-19.4,0-29.1,7.2-37.9,13.4c-7.7,5.5-13.8,9.8-27,9.8c-13.2,0-19.4-4.3-27-9.8c-8.7-6.3-18.7-13.4-37.9-13.4
	s-29.1,7.2-37.9,13.4c-7.7,5.5-13.8,9.8-27,9.8s-19.4-4.3-27-9.8c-8.6-6.3-18.5-13.4-37.7-13.4v19.5c13.2,0,19.4,4.3,27,9.8
	c8.7,6.3,18.7,13.4,37.9,13.4s29.1-7.2,37.9-13.4c7.7-5.5,13.8-9.8,27-9.8c13.2,0,19.4,4.3,27,9.8c8.7,6.3,18.7,13.4,37.9,13.4
	s29.1-7.2,37.9-13.4c7.7-5.5,13.8-9.8,27-9.8c13.2,0,19.4,4.3,27,9.8c8.7,6.3,18.7,13.4,37.9,13.4v-19.5c-13.2,0-19.4-4.3-27-9.8
	C289.8,238.4,280,231.3,260.6,231.3z"/>
<path d="M260.6,288.5c-19.4,0-29.1,7.2-37.9,13.4c-7.7,5.5-13.8,9.8-27,9.8c-13.2,0-19.4-4.3-27-9.8c-8.7-6.3-18.7-13.4-37.9-13.4
	s-29.1,7.2-37.9,13.4c-7.5,5.6-13.6,9.9-26.8,9.9s-19.4-4.3-27-9.8c-9-6.3-18.8-13.5-38.1-13.5V308c13.2,0,19.4,4.3,27,9.8
	c8.7,6.3,18.7,13.4,37.9,13.4s29.1-7.2,37.9-13.4c7.7-5.5,13.8-9.8,27-9.8c13.1,0,19.4,4.3,27,9.8c8.7,6.3,18.7,13.4,37.9,13.4
	s29.1-7.2,37.9-13.4c7.7-5.5,13.8-9.8,27-9.8c13.2,0,19.4,4.3,27,9.8c8.7,6.3,18.7,13.4,37.9,13.4v-19.4c-13.2,0-19.4-4.3-27-9.8
	C289.8,295.7,280,288.5,260.6,288.5z"/>
<path d="M298.6,187.4c-8.7-6.3-18.7-13.4-37.9-13.4c-19.4,0-29.1,7.2-37.9,13.4c-7.7,5.5-13.8,9.8-27,9.8c-13.2,0-19.4-4.3-27-9.8
	c-8.7-6.3-18.7-13.4-37.9-13.4s-29.1,7.2-37.9,13.4c-7.7,5.5-13.8,9.8-27,9.8s-19.4-4.3-27-9.8C30.3,181.2,20.5,174,1.2,174v19.5
	c13.2,0,19.4,4.3,27,9.8c8.7,6.3,18.7,13.4,37.9,13.4s29.1-7.2,37.9-13.4c7.7-5.5,13.8-9.8,27-9.8c13.2,0,19.4,4.3,27,9.8
	c8.7,6.3,18.7,13.4,37.9,13.4s29.1-7.2,37.9-13.4c7.7-5.5,13.8-9.8,27-9.8c13.2,0,19.4,4.3,27,9.8c8.7,6.3,18.7,13.4,37.9,13.4
	v-19.5C312.3,197.3,306.2,193.1,298.6,187.4z"/>
<path d="M520.5,345.8c-19.4,0-29.1,7.2-37.9,13.4c-7.7,5.5-13.8,9.8-27,9.8c-13.1,0-19.4-4.3-27-9.8c-8.7-6.3-18.7-13.4-37.9-13.4
	c-19.4,0-29.1,7.2-37.9,13.4c-7.7,5.5-13.8,9.8-27,9.8c-13.2,0-19.4-4.3-27-9.8c-8.7-6.3-18.7-13.4-37.9-13.4v19.5
	c13.2,0,19.4,4.3,27,9.8c8.7,6.3,18.7,13.4,37.9,13.4c19.4,0,29.1-7.2,37.9-13.4c7.7-5.5,13.8-9.8,27-9.8c13.2,0,19.4,4.3,27,9.8
	c8.7,6.3,18.7,13.4,37.9,13.4c19.4,0,29.1-7.2,37.9-13.4c7.7-5.5,13.8-9.8,27-9.8c13.1,0,19.4,4.3,27,9.8
	c8.7,6.3,18.7,13.4,37.9,13.4V369c-13.2,0-19.4-4.3-27-9.8C549.6,353,539.8,345.8,520.5,345.8z"/>
<path d="M520.5,231.3c-19.4,0-29.1,7.2-37.9,13.4c-7.7,5.5-13.8,9.8-27,9.8c-13.1,0-19.4-4.3-27-9.8c-8.7-6.3-18.7-13.4-37.9-13.4
	c-19.4,0-29.1,7.2-37.9,13.4c-7.7,5.5-13.8,9.8-27,9.8c-13.2,0-19.4-4.3-27-9.8c-8.7-6.3-18.7-13.4-37.9-13.4v19.5
	c13.2,0,19.4,4.3,27,9.8c8.7,6.3,18.7,13.4,37.9,13.4c19.4,0,29.1-7.2,37.9-13.4c7.7-5.5,13.8-9.8,27-9.8c13.2,0,19.4,4.3,27,9.8
	c8.7,6.3,18.7,13.4,37.9,13.4c19.4,0,29.1-7.2,37.9-13.4c7.7-5.5,13.8-9.8,27-9.8c13.1,0,19.4,4.3,27,9.8
	c8.7,6.3,18.7,13.4,37.9,13.4v-19.5c-13.2,0-19.4-4.3-27-9.8C549.6,238.4,539.8,231.3,520.5,231.3z"/>
<path d="M520.5,288.5c-19.4,0-29.1,7.2-37.9,13.4c-7.7,5.5-13.8,9.8-27,9.8c-13.1,0-19.4-4.3-27-9.8c-8.7-6.3-18.7-13.4-37.9-13.4
	c-19.4,0-29.1,7.2-37.9,13.4c-7.5,5.6-13.6,9.9-26.8,9.9c-13.1,0-19.4-4.3-27-9.8c-8.7-6.3-18.7-13.4-37.9-13.4v19.5
	c13.2,0,19.4,4.3,27,9.8c8.7,6.3,18.7,13.4,37.9,13.4c19.3,0,29.1-7.2,37.9-13.4c7.7-5.5,13.8-9.8,27-9.8s19.4,4.3,27,9.8
	c8.7,6.3,18.7,13.4,37.9,13.4c19.4,0,29.1-7.2,37.9-13.4c7.7-5.5,13.8-9.8,27-9.8s19.4,4.3,27,9.8c8.7,6.3,18.7,13.4,37.9,13.4
	v-19.5c-13.2,0-19.4-4.3-27-9.8C549.6,295.7,539.8,288.5,520.5,288.5z"/>
<path d="M558.4,187.4c-8.7-6.3-18.7-13.4-37.9-13.4c-19.4,0-29.1,7.2-37.9,13.4c-7.7,5.5-13.8,9.8-27,9.8c-13.1,0-19.4-4.3-27-9.8
	c-8.7-6.3-18.7-13.4-37.9-13.4c-19.4,0-29.1,7.2-37.9,13.4c-7.7,5.5-13.8,9.8-27,9.8c-13.2,0-19.4-4.3-27-9.8
	c-8.6-6.2-18.5-13.4-37.7-13.4v19.5c13.2,0,19.4,4.3,27,9.8c8.7,6.3,18.7,13.4,37.9,13.4c19.4,0,29.1-7.2,37.9-13.4
	c7.7-5.5,13.8-9.8,27-9.8s19.4,4.3,27,9.8c8.7,6.3,18.7,13.4,37.9,13.4c19.4,0,29.1-7.2,37.9-13.4c7.7-5.5,13.8-9.8,27-9.8
	c13.2,0,19.4,4.3,27,9.8c8.7,6.3,18.7,13.4,37.9,13.4v-19.5C572.2,197.3,566,193.1,558.4,187.4z"/>
<path d="M780.3,345.8c-19.4,0-29.1,7.2-37.9,13.4c-7.7,5.5-13.8,9.8-27,9.8c-13.2,0-19.4-4.3-27-9.8c-8.7-6.3-18.7-13.4-37.9-13.4
	c-19.4,0-29.1,7.2-37.9,13.4c-7.7,5.5-13.8,9.8-27,9.8s-19.4-4.3-27-9.8c-8.7-6.3-18.7-13.4-37.9-13.4v19.5c13.2,0,19.4,4.3,27,9.8
	c8.7,6.3,18.7,13.4,37.9,13.4c19.4,0,29.1-7.2,37.9-13.4c7.7-5.5,13.8-9.8,27-9.8s19.4,4.3,27,9.8c8.7,6.3,18.7,13.4,37.9,13.4
	c19.4,0,29.1-7.2,37.9-13.4c7.7-5.5,13.8-9.8,27-9.8s19.4,4.3,27,9.8c8.7,6.3,18.7,13.4,37.9,13.4V369c-13.2,0-19.4-4.3-27-9.8
	C809.5,353,799.6,345.8,780.3,345.8z"/>
<path d="M780.3,231.3c-19.4,0-29.1,7.2-37.9,13.4c-7.7,5.5-13.8,9.8-27,9.8c-13.2,0-19.4-4.3-27-9.8c-8.7-6.3-18.7-13.4-37.9-13.4
	c-19.4,0-29.1,7.2-37.9,13.4c-7.7,5.5-13.8,9.8-27,9.8s-19.4-4.3-27-9.8c-8.7-6.3-18.7-13.4-37.9-13.4v19.5c13.2,0,19.4,4.3,27,9.8
	c8.7,6.3,18.7,13.4,37.9,13.4c19.4,0,29.1-7.2,37.9-13.4c7.7-5.5,13.8-9.8,27-9.8s19.4,4.3,27,9.8c8.7,6.3,18.7,13.4,37.9,13.4
	c19.4,0,29.1-7.2,37.9-13.4c7.7-5.5,13.8-9.8,27-9.8s19.4,4.3,27,9.8c8.7,6.3,18.7,13.4,37.9,13.4v-19.5c-13.2,0-19.4-4.3-27-9.8
	C809.5,238.4,799.6,231.3,780.3,231.3z"/>
<path d="M780.3,288.5c-19.4,0-29.1,7.2-37.9,13.4c-7.7,5.5-13.8,9.8-27,9.8c-13.2,0-19.4-4.3-27-9.8c-8.7-6.3-18.7-13.4-37.9-13.4
	c-19.4,0-29.1,7.2-37.9,13.4c-7.5,5.6-13.6,9.9-26.8,9.9c-13.2,0-19.4-4.3-27-9.8c-8.7-6.3-18.7-13.4-37.9-13.4v19.5
	c13.2,0,19.4,4.3,27,9.8c8.7,6.3,18.7,13.4,37.9,13.4c19.4,0,29.1-7.2,37.9-13.4c7.7-5.5,13.8-9.8,27-9.8s19.4,4.3,27,9.8
	c8.7,6.3,18.7,13.4,37.9,13.4c19.4,0,29.1-7.2,37.9-13.4c7.7-5.5,13.8-9.8,27-9.8s19.4,4.3,27,9.8c8.7,6.3,18.7,13.4,37.9,13.4
	v-19.5c-13.2,0-19.4-4.3-27-9.8C809.5,295.7,799.6,288.5,780.3,288.5z"/>
<path d="M818.3,187.4c-8.7-6.3-18.7-13.4-37.9-13.4s-29.1,7.2-37.9,13.4c-7.7,5.5-13.8,9.8-27,9.8c-13.2,0-19.4-4.3-27-9.8
	c-8.7-6.3-18.7-13.4-37.9-13.4c-19.4,0-29.1,7.2-37.9,13.4c-7.7,5.5-13.8,9.8-27,9.8s-19.4-4.3-27-9.8c-8.7-6.2-18.5-13.4-37.7-13.4
	v19.5c13.2,0,19.4,4.3,27,9.8c8.7,6.3,18.7,13.4,37.9,13.4c19.4,0,29.1-7.2,37.9-13.4c7.7-5.5,13.8-9.8,27-9.8s19.4,4.3,27,9.8
	c8.7,6.3,18.7,13.4,37.9,13.4c19.4,0,29.1-7.2,37.9-13.4c7.7-5.5,13.8-9.8,27-9.8s19.4,4.3,27,9.8c8.7,6.3,18.7,13.4,37.9,13.4
	v-19.5C832,197.3,825.9,193.1,818.3,187.4z"/>
<path d="M1040.2,345.8c-19.4,0-29.1,7.2-37.9,13.4c-7.7,5.5-13.8,9.8-27,9.8s-19.4-4.3-27-9.8c-8.7-6.3-18.7-13.4-37.9-13.4
	s-29.1,7.2-37.9,13.4c-7.7,5.5-13.8,9.8-27,9.8s-19.4-4.3-27-9.8c-8.7-6.3-18.7-13.4-37.9-13.4v19.5c13.2,0,19.4,4.3,27,9.8
	c8.7,6.3,18.7,13.4,37.9,13.4c19.4,0,29.1-7.2,37.9-13.4c7.7-5.5,13.8-9.8,27-9.8s19.4,4.3,27,9.8c8.7,6.3,18.7,13.4,37.9,13.4
	c19.4,0,29.1-7.2,37.9-13.4c7.7-5.5,13.8-9.8,27-9.8c13.2,0,19.4,4.3,27,9.8c8.7,6.3,18.7,13.4,37.9,13.4V369
	c-13.2,0-19.4-4.3-27-9.8C1069.3,353,1059.4,345.8,1040.2,345.8z"/>
<path d="M1040.2,231.3c-19.4,0-29.1,7.2-37.9,13.4c-7.7,5.5-13.8,9.8-27,9.8s-19.4-4.3-27-9.8c-8.7-6.3-18.7-13.4-37.9-13.4
	s-29.1,7.2-37.9,13.4c-7.7,5.5-13.8,9.8-27,9.8s-19.4-4.3-27-9.8c-8.7-6.3-18.7-13.4-37.9-13.4v19.5c13.2,0,19.4,4.3,27,9.8
	c8.7,6.3,18.7,13.4,37.9,13.4c19.4,0,29.1-7.2,37.9-13.4c7.7-5.5,13.8-9.8,27-9.8s19.4,4.3,27,9.8c8.7,6.3,18.7,13.4,37.9,13.4
	c19.4,0,29.1-7.2,37.9-13.4c7.7-5.5,13.8-9.8,27-9.8c13.2,0,19.4,4.3,27,9.8c8.7,6.3,18.7,13.4,37.9,13.4v-19.5
	c-13.2,0-19.4-4.3-27-9.8C1069.3,238.4,1059.4,231.3,1040.2,231.3z"/>
<path d="M1040.2,288.5c-19.4,0-29.1,7.2-37.9,13.4c-7.7,5.5-13.8,9.8-27,9.8s-19.4-4.3-27-9.8c-8.7-6.3-18.7-13.4-37.9-13.4
	s-29.1,7.2-37.9,13.4c-7.5,5.6-13.6,9.9-26.8,9.9s-19.4-4.3-27-9.8c-8.7-6.3-18.7-13.4-37.9-13.4v19.5c13.2,0,19.4,4.3,27,9.8
	c8.7,6.3,18.7,13.4,37.9,13.4c19.4,0,29.1-7.2,37.9-13.4c7.7-5.5,13.8-9.8,27-9.8s19.4,4.3,27,9.8c8.7,6.3,18.7,13.4,37.9,13.4
	c19.4,0,29.1-7.2,37.9-13.4c7.7-5.5,13.8-9.8,27-9.8s19.4,4.3,27,9.8c8.7,6.3,18.7,13.4,37.9,13.4v-19.5c-13.2,0-19.4-4.3-27-9.8
	C1069.3,295.7,1059.4,288.5,1040.2,288.5z"/>
<path d="M1078.1,187.4c-8.7-6.3-18.7-13.4-37.9-13.4c-19.3,0-29.1,7.2-37.9,13.4c-7.7,5.5-13.8,9.8-27,9.8s-19.4-4.3-27-9.8
	c-8.7-6.3-18.7-13.4-37.9-13.4s-29.1,7.2-37.9,13.4c-7.7,5.5-13.8,9.8-27,9.8s-19.4-4.3-27-9.8c-8.7-6.2-18.5-13.4-37.7-13.4v19.5
	c13.2,0,19.4,4.3,27,9.8c8.7,6.3,18.7,13.4,37.9,13.4c19.4,0,29.1-7.2,37.9-13.4c7.7-5.5,13.8-9.8,27-9.8s19.4,4.3,27,9.8
	c8.7,6.3,18.7,13.4,37.9,13.4c19.4,0,29.1-7.2,37.9-13.4c7.7-5.5,13.8-9.8,27-9.8s19.4,4.3,27,9.8c8.7,6.3,18.7,13.4,37.9,13.4
	v-19.5C1091.8,197.3,1085.7,193.1,1078.1,187.4z"/>
<path d="M1299,345.8c-19.4,0-29.1,7.2-37.9,13.4c-7.7,5.5-13.8,9.8-27,9.8c-13.2,0-19.4-4.3-27-9.8c-8.7-6.3-18.7-13.4-37.9-13.4
	c-19.3,0-29.1,7.2-37.9,13.4c-7.7,5.5-13.8,9.8-27,9.8c-13.1,0-19.4-4.3-27-9.8c-8.7-6.3-18.7-13.4-37.9-13.4v19.5
	c13.2,0,19.4,4.3,27,9.8c8.7,6.3,18.7,13.4,37.9,13.4c19.3,0,29.1-7.2,37.9-13.4c7.7-5.5,13.8-9.8,27-9.8c13.1,0,19.4,4.3,27,9.8
	c8.7,6.3,18.7,13.4,37.9,13.4c19.4,0,29.1-7.2,37.9-13.4c7.7-5.5,13.8-9.8,27-9.8c13.1,0,19.4,4.3,27,9.8
	c8.7,6.3,18.7,13.4,37.9,13.4V369c-13.2,0-19.4-4.3-27-9.8C1328.2,353,1318.2,345.8,1299,345.8z"/>
<path d="M1299,231.3c-19.4,0-29.1,7.2-37.9,13.4c-7.7,5.5-13.8,9.8-27,9.8c-13.2,0-19.4-4.3-27-9.8c-8.7-6.3-18.7-13.4-37.9-13.4
	c-19.3,0-29.1,7.2-37.9,13.4c-7.7,5.5-13.8,9.8-27,9.8c-13.1,0-19.4-4.3-27-9.8c-8.7-6.3-18.7-13.4-37.9-13.4v19.5
	c13.2,0,19.4,4.3,27,9.8c8.7,6.3,18.7,13.4,37.9,13.4c19.3,0,29.1-7.2,37.9-13.4c7.7-5.5,13.8-9.8,27-9.8c13.1,0,19.4,4.3,27,9.8
	c8.7,6.3,18.7,13.4,37.9,13.4c19.4,0,29.1-7.2,37.9-13.4c7.7-5.5,13.8-9.8,27-9.8c13.1,0,19.4,4.3,27,9.8
	c8.7,6.3,18.7,13.4,37.9,13.4v-19.5c-13.2,0-19.4-4.3-27-9.8C1328.2,238.4,1318.2,231.3,1299,231.3z"/>
<path d="M1299,288.5c-19.4,0-29.1,7.2-37.9,13.4c-7.7,5.5-13.8,9.8-27,9.8c-13.2,0-19.4-4.3-27-9.8c-8.7-6.3-18.7-13.4-37.9-13.4
	c-19.3,0-29.1,7.2-37.9,13.4c-7.7,5.5-13.8,9.8-27,9.8c-13.1,0-19.4-4.3-27-9.8c-8.7-6.3-18.7-13.4-37.9-13.4V308
	c13.2,0,19.4,4.3,27,9.8c8.7,6.3,18.7,13.4,37.9,13.4c19.3,0,29.1-7.2,37.9-13.4c7.7-5.5,13.8-9.8,27-9.8c13.1,0,19.4,4.3,27,9.8
	c8.7,6.3,18.7,13.4,37.9,13.4c19.4,0,29.1-7.2,37.9-13.4c7.7-5.5,13.8-9.8,27-9.8c13.1,0,19.4,4.3,27,9.8
	c8.7,6.3,18.7,13.4,37.9,13.4v-19.4c-13.2,0-19.4-4.3-27-9.8C1328.2,295.7,1318.2,288.5,1299,288.5z"/>
<path d="M1337,187.4c-8.7-6.3-18.7-13.4-37.9-13.4c-19.3,0-29.1,7.2-37.9,13.4c-7.7,5.5-13.8,9.8-27,9.8c-13.2,0-19.4-4.3-27-9.8
	c-8.7-6.3-18.7-13.4-37.9-13.4c-19.3,0-29.1,7.2-37.9,13.4c-7.7,5.5-13.8,9.8-27,9.8c-13.1,0-19.4-4.3-27-9.8
	c-8.7-6.3-18.7-13.4-37.9-13.4v19.5c13.2,0,19.4,4.3,27,9.8c8.7,6.3,18.7,13.4,37.9,13.4c19.3,0,29.1-7.2,37.9-13.4
	c7.7-5.5,13.8-9.8,27-9.8c13.1,0,19.4,4.3,27,9.8c8.7,6.3,18.7,13.4,37.9,13.4c19.4,0,29.1-7.2,37.9-13.4c7.7-5.5,13.8-9.8,27-9.8
	c13.1,0,19.4,4.3,27,9.8c8.7,6.3,18.7,13.4,37.9,13.4v-19.5C1350.7,197.3,1344.6,193.1,1337,187.4z"/>
</svg>
